{"title":"Source Code 2011 TS XViD DTRG - SAFCuk009","uid":6291881,"size":1324742674,"categoryP":"video","categoryS":"movies","magnet":"?xt=urn:btih:0930be068e5b862cfe30969947657d9c60aea5b3&amp;dn=Source+Code+2011+TS+XViD+DTRG+-+SAFCuk009&amp;tr=udp%3A%2F%2Ftracker.openbittorrent.com%3A80&amp;tr=udp%3A%2F%2Fopen.demonii.com%3A1337&amp;tr=udp%3A%2F%2Ftracker.coppersurfer.tk%3A6969&amp;tr=udp%3A%2F%2Fexodus.desync.com%3A6969","seeders":0,"leechers":0,"uploader":"SAFCukO09","files":4,"time":1301847706,"description":"\n\nFormat                           : AVI\nFormat/Info                      : Audio Video Interleave\nFile size                        : 1.23 GiB\nDuration                         : 1h 26mn\nOverall bit rate                 : 2 042 Kbps\nWriting library                  : VirtualDub build 32839/release\n\nVideo\nID                               : 0\nFormat                           : MPEG-4 Visual\nFormat profile                   : Advanced Simple@L5\nFormat settings, BVOP            : Yes\nFormat settings, QPel            : No\nFormat settings, GMC             : No warppoints\nFormat settings, Matrix          : Custom\nCodec ID                         : XVID\nCodec ID/Hint                    : XviD\nDuration                         : 1h 26mn\nBit rate                         : 1 904 Kbps\nWidth                            : 720 pixels\nHeight                           : 400 pixels\nDisplay aspect ratio             : 16:9\nFrame rate                       : 25.000 fps\nColor space                      : YUV\nChroma subsampling               : 4:2:0\nBit depth                        : 8 bits\nScan type                        : Progressive\nBits/(Pixel*Frame)               : 0.264\nStream size                      : 1.15 GiB (93%)\nWriting library                  : XviD 1.2.1 (UTC 2008-12-04)\n\nAudio\nID                               : 1\nFormat                           : MPEG Audio\nFormat version                   : Version 1\nFormat profile                   : Layer 3\nCodec ID                         : 55\nCodec ID/Hint                    : MP3\nDuration                         : 1h 26mn\nBit rate mode                    : Constant\nBit rate                         : 128 Kbps\nChannel(s)                       : 2 channels\nSampling rate                    : 44.1 KHz\nStream size                      : 78.9 MiB (6%)\nAlignment                        : Split accross interleaves\nInterleave, duration             : 40 ms (1.00 video frame)\nInterleave, preload duration     : 500 ms\n\n\n &lt;a href=&quot;\nhttp://www.imdb.com/title/tt0945513/&quot; rel=&quot;nofollow&quot; target=&quot;_NEW&quot;&gt;\nhttp://www.imdb.com/title/tt0945513/&lt;/a&gt;\n\n\n\nUsers: 8.1/10 (711 votes) 29 reviews | Critics: 56 reviews Metascore: 74/100 (based on 38 reviews from Metacritic.com)\n\nPlot\nAn action thriller centered on a soldier who wakes up in the body of an unknown man and discovers he's part of a mission to find the bomber of a Chicago commuter train.\n\nDirector: Duncan Jones\n\nWriter: Ben Ripley\nStars:\nJake Gyllenhaal, Michelle Monaghan and Vera \n &lt;a href=&quot;\nhttp://img812.imageshack.us/img812/8914/vlcsnap2011040310h37m53.png&quot; rel=&quot;nofollow&quot; target=&quot;_NEW&quot;&gt;\nhttp://img812.imageshack.us/img812/8914/vlcsnap2011040310h37m53.png&lt;/a&gt;\n &lt;a href=&quot;\nhttp://img847.imageshack.us/img847/3455/vlcsnap2011040310h35m45.png&quot; rel=&quot;nofollow&quot; target=&quot;_NEW&quot;&gt;\nhttp://img847.imageshack.us/img847/3455/vlcsnap2011040310h35m45.png&lt;/a&gt;\n &lt;a href=&quot;\nhttp://img195.imageshack.us/img195/3044/vlcsnap2011040310h41m50.png&quot; rel=&quot;nofollow&quot; target=&quot;_NEW&quot;&gt;\nhttp://img195.imageshack.us/img195/3044/vlcsnap2011040310h41m50.png&lt;/a&gt;\n\n\nVideo: ELEKTRI4KA ...........Thanks \n\nAudio: IMAGiNE   .................. Thanks \n\nSample included so check it out first before downloading ....\n\nFilters .slight smoother ,rgb colours changed brightness saturation \nEnjoy !\n\n\n\nGreetz to Imagine ,Flawl3ss,DiLLoN,BDK,NOiR,TOXiCiNK,THC,Ez,Rx,Boobyblue\n\n\n\n\n","torrent":{"xt":"urn:btih:0930be068e5b862cfe30969947657d9c60aea5b3","amp;dn":"Source+Code+2011+TS+XViD+DTRG+-+SAFCuk009","amp;tr":["udp%3A%2F%2Ftracker.openbittorrent.com%3A80","udp%3A%2F%2Fopen.demonii.com%3A1337","udp%3A%2F%2Ftracker.coppersurfer.tk%3A6969","udp%3A%2F%2Fexodus.desync.com%3A6969"],"infoHash":"0930be068e5b862cfe30969947657d9c60aea5b3","infoHashBuffer":{"type":"Buffer","data":[9,48,190,6,142,91,134,44,254,48,150,153,71,101,125,156,96,174,165,179]},"announce":[],"urlList":[]}}